<svg xmlns="http://www.w3.org/2000/svg" width="28" height="27" viewBox="0 0 28 27" fill="none">
  <path
    d="M10.9019 26.2194H8.75161C8.45041 26.2194 8.2064 25.9754 8.2064 25.6742V11.6552C8.2064 11.354 7.96238 11.11 7.66118 11.11H0.545214C0.244017 11.11 0 10.866 0 10.5648V0.544959C0 0.243769 0.244017 -0.000244141 0.545214 -0.000244141H27.4548C27.756 -0.000244141 28 0.243769 28 0.544959V10.5648C28 10.866 27.756 11.11 27.4548 11.11H19.792C19.4908 11.11 19.2468 11.354 19.2468 11.6552V17.7184C19.2468 18.0196 19.0028 18.2636 18.7016 18.2636H16.5513C16.2501 18.2636 16.0061 18.0196 16.0061 17.7184V8.41456C16.0061 8.11337 16.2501 7.86936 16.5513 7.86936H24.2141C24.5153 7.86936 24.7593 7.62535 24.7593 7.32416V3.78638C24.7593 3.48519 24.5153 3.24118 24.2141 3.24118H3.78589C3.4847 3.24118 3.24068 3.48519 3.24068 3.78638V7.32416C3.24068 7.62535 3.4847 7.86936 3.78589 7.86936H10.9019C11.2031 7.86936 11.4471 8.11337 11.4471 8.41456V25.6742C11.4471 25.9754 11.2031 26.2194 10.9019 26.2194Z"
    fill="white"
  />
  <path
    d="M19.8185 17.6064H15.303C15.0614 17.6064 14.9277 17.8867 15.0791 18.0751L17.3373 20.8656C17.3945 20.9365 17.4774 20.9719 17.5612 20.9719C17.6449 20.9719 17.7271 20.9365 17.7843 20.8656L20.0424 18.0751C20.1946 17.8875 20.061 17.6064 19.8185 17.6064Z"
    fill="white"
  />
</svg>
