<svg width="170" height="37" viewBox="0 0 170 37" fill="none" xmlns="http://www.w3.org/2000/svg">
<path d="M14.6273 36.6842H11.7422C11.3381 36.6842 11.0107 36.3428 11.0107 35.9214V16.3072C11.0107 15.8858 10.6833 15.5444 10.2792 15.5444H0.731526C0.327404 15.5444 0 15.203 0 14.7816V0.762798C0 0.3414 0.327404 0 0.731526 0H36.8367C37.2408 0 37.5682 0.3414 37.5682 0.762798V14.7816C37.5682 15.203 37.2408 15.5444 36.8367 15.5444H26.5554C26.1513 15.5444 25.8238 15.8858 25.8238 16.3072V24.7904C25.8238 25.2118 25.4964 25.5532 25.0923 25.5532H22.2073C21.8032 25.5532 21.4758 25.2118 21.4758 24.7904V11.7732C21.4758 11.3518 21.8032 11.0104 22.2073 11.0104H32.4886C32.8927 11.0104 33.2202 10.669 33.2202 10.2476V5.2979C33.2202 4.8765 32.8927 4.5351 32.4886 4.5351H5.07962C4.6755 4.5351 4.3481 4.8765 4.3481 5.2979V10.2476C4.3481 10.669 4.6755 11.0104 5.07962 11.0104H14.6273C15.0314 11.0104 15.3588 11.3518 15.3588 11.7732V35.9214C15.3588 36.3428 15.0314 36.6842 14.6273 36.6842Z" fill="#19216C"/>
<path d="M26.591 24.6338H20.5324C20.2083 24.6338 20.0289 25.0259 20.232 25.2895L23.2619 29.1937C23.3386 29.2928 23.4499 29.3424 23.5623 29.3424C23.6746 29.3424 23.7848 29.2928 23.8616 29.1937L26.8914 25.2895C27.0956 25.027 26.9163 24.6338 26.591 24.6338Z" fill="#19216C"/>
<path d="M26.591 24.6338H20.5324C20.2083 24.6338 20.0289 25.0259 20.232 25.2895L23.2619 29.1937C23.3386 29.2928 23.4499 29.3424 23.5623 29.3424C23.6746 29.3424 23.7848 29.2928 23.8616 29.1937L26.8914 25.2895C27.0956 25.027 26.9163 24.6338 26.591 24.6338Z" fill="#F9703E"/>
<path d="M157.178 17.2506C155.933 17.2506 154.845 16.9572 153.915 16.3705C153.127 15.8531 152.55 15.1821 152.186 14.3573C152.084 14.1261 152.197 13.8625 152.425 13.7532L153.67 13.156C153.923 13.035 154.222 13.1469 154.367 13.3864C154.637 13.8339 154.973 14.1988 155.375 14.4813C155.919 14.8534 156.52 15.0395 157.178 15.0395C157.693 15.0395 158.101 14.925 158.402 14.696C158.702 14.467 158.853 14.1665 158.853 13.7944C158.853 13.5654 158.788 13.3793 158.659 13.2362C158.545 13.0788 158.38 12.95 158.166 12.8498C157.965 12.7353 157.743 12.6423 157.5 12.5707L155.589 12.034C154.602 11.7478 153.851 11.3113 153.335 10.7245C152.834 10.1378 152.584 9.44364 152.584 8.64219C152.584 7.92661 152.763 7.30405 153.121 6.77452C153.493 6.23068 154.001 5.80849 154.645 5.50794C155.303 5.2074 156.055 5.05713 156.899 5.05713C158.001 5.05713 158.974 5.32189 159.819 5.85142C160.534 6.30025 161.075 6.90329 161.441 7.66056C161.555 7.89484 161.441 8.16922 161.205 8.27991L159.964 8.86314C159.7 8.9871 159.391 8.85613 159.236 8.60943C159.041 8.29966 158.784 8.03866 158.466 7.82643C157.994 7.51157 157.464 7.35414 156.878 7.35414C156.405 7.35414 156.033 7.46148 155.761 7.67616C155.489 7.89083 155.353 8.16991 155.353 8.51338C155.353 8.72806 155.411 8.91411 155.525 9.07154C155.64 9.22897 155.797 9.35777 155.997 9.45795C156.212 9.55813 156.455 9.65116 156.727 9.73703L158.595 10.2952C159.554 10.5814 160.291 11.0108 160.806 11.5832C161.336 12.1557 161.6 12.857 161.6 13.687C161.6 14.3883 161.414 15.0109 161.042 15.5547C160.67 16.0842 160.155 16.4993 159.497 16.7998C158.838 17.1004 158.065 17.2506 157.178 17.2506Z" fill="#19216C"/>
<path d="M144.055 17.2506C142.853 17.2506 141.801 16.9787 140.899 16.4349C139.997 15.891 139.296 15.154 138.795 14.2237C138.294 13.2935 138.044 12.263 138.044 11.1324C138.044 9.95886 138.294 8.92127 138.795 8.01963C139.311 7.10369 140.005 6.38095 140.878 5.85142C141.765 5.32189 142.752 5.05713 143.84 5.05713C144.756 5.05713 145.558 5.2074 146.245 5.50794C146.946 5.80849 147.54 6.22353 148.026 6.75306C148.513 7.28259 148.885 7.89083 149.143 8.57779C149.4 9.25043 149.529 9.98033 149.529 10.7675C149.529 10.9678 149.515 11.1753 149.486 11.39C149.481 11.4666 149.473 11.5395 149.463 11.6087C149.431 11.8166 149.239 11.9482 149.029 11.9482H140.862C140.586 11.9482 140.362 11.7243 140.362 11.4482V10.3014C140.362 10.0253 140.586 9.80143 140.862 9.80143H146.902C147.188 9.80143 147.311 10.165 147.083 10.3378V10.3378C146.864 10.5034 146.538 10.3071 146.535 10.033C146.531 9.68063 146.47 9.35298 146.352 9.05007C146.166 8.53485 145.851 8.12697 145.407 7.82643C144.978 7.52588 144.456 7.37561 143.84 7.37561C143.253 7.37561 142.731 7.52588 142.273 7.82643C141.815 8.11266 141.464 8.54201 141.221 9.11447C140.996 9.66381 140.909 10.331 140.961 11.116C140.963 11.1412 140.962 11.1666 140.961 11.1917C140.91 11.8919 141.004 12.5162 141.243 13.0645C141.5 13.6083 141.872 14.0305 142.359 14.3311C142.86 14.6316 143.432 14.7819 144.076 14.7819C144.72 14.7819 145.264 14.6459 145.708 14.374C146.026 14.1848 146.297 13.9506 146.518 13.6713C146.683 13.4636 146.967 13.3705 147.205 13.4873L148.637 14.1895C148.873 14.3054 148.982 14.5868 148.853 14.8161C148.634 15.205 148.344 15.5585 147.983 15.8767C147.497 16.3061 146.917 16.6424 146.245 16.8857C145.586 17.129 144.856 17.2506 144.055 17.2506Z" fill="#19216C"/>
<path d="M132.534 16.9932C132.258 16.9932 132.034 16.7694 132.034 16.4932V5.81495C132.034 5.53881 132.258 5.31495 132.534 5.31495H134.346C134.623 5.31495 134.846 5.53881 134.846 5.81495V16.4932C134.846 16.7694 134.623 16.9932 134.346 16.9932H132.534ZM132.534 4.00544C132.258 4.00544 132.034 3.78158 132.034 3.50544V1.5C132.034 1.22386 132.258 1 132.534 1H134.346C134.623 1 134.846 1.22386 134.846 1.5V3.50544C134.846 3.78158 134.623 4.00544 134.346 4.00544H132.534Z" fill="#19216C"/>
<path d="M123.432 16.9931C123.155 16.9931 122.932 16.7693 122.932 16.4931V5.81484C122.932 5.5387 123.155 5.31484 123.432 5.31484H125.072C125.348 5.31484 125.572 5.5387 125.572 5.81484V7.5145C125.572 7.62089 125.431 7.65757 125.379 7.56457V7.56457C125.365 7.53993 125.362 7.51059 125.371 7.48375C125.643 6.63333 126.061 6.03916 126.624 5.70125C127.211 5.35777 127.912 5.18604 128.728 5.18604H128.915C129.191 5.18604 129.415 5.40989 129.415 5.68604V7.17626C129.415 7.4524 129.191 7.67626 128.915 7.67626H128.406C127.604 7.67626 126.96 7.92671 126.474 8.42762C125.987 8.91421 125.744 9.60117 125.744 10.4885V16.4931C125.744 16.7693 125.52 16.9931 125.244 16.9931H123.432Z" fill="#19216C"/>
<path d="M118.314 17.1221C116.998 17.1221 115.974 16.7643 115.244 16.0487C114.529 15.3188 114.171 14.2955 114.171 12.9789V8.3267C114.171 8.05055 113.947 7.82669 113.671 7.82669H112.653C112.377 7.82669 112.153 7.60284 112.153 7.32669V5.52968C112.153 5.41112 112.249 5.31501 112.368 5.31501V5.31501C112.94 5.31501 113.384 5.16473 113.699 4.86419C114.014 4.56365 114.171 4.12714 114.171 3.55468V3.15305C114.171 2.8769 114.395 2.65305 114.671 2.65305H116.483C116.759 2.65305 116.983 2.8769 116.983 3.15305V4.815C116.983 5.09115 117.207 5.31501 117.483 5.31501H119.167C119.443 5.31501 119.667 5.53886 119.667 5.81501V7.32669C119.667 7.60284 119.443 7.82669 119.167 7.82669H117.483C117.207 7.82669 116.983 8.05055 116.983 8.32669V12.8286C116.983 13.215 117.048 13.5442 117.176 13.8161C117.32 14.088 117.534 14.2955 117.82 14.4387C118.121 14.5818 118.5 14.6533 118.958 14.6533C119.058 14.6533 119.173 14.6462 119.302 14.6319V14.6319C119.519 14.6101 119.71 14.7803 119.71 14.9991V16.5596C119.71 16.8085 119.527 17.0197 119.28 17.0495C119.197 17.0594 119.112 17.0693 119.023 17.0792C118.765 17.1078 118.529 17.1221 118.314 17.1221Z" fill="#19216C"/>
<path d="M105.333 17.2506C104.088 17.2506 103.001 16.9572 102.07 16.3705C101.282 15.8531 100.706 15.1821 100.341 14.3573C100.239 14.1261 100.352 13.8625 100.58 13.7532L101.826 13.156C102.078 13.035 102.377 13.1469 102.522 13.3864C102.792 13.8339 103.128 14.1988 103.53 14.4813C104.074 14.8534 104.675 15.0395 105.333 15.0395C105.849 15.0395 106.256 14.925 106.557 14.696C106.858 14.467 107.008 14.1665 107.008 13.7944C107.008 13.5654 106.943 13.3793 106.815 13.2362C106.7 13.0788 106.536 12.95 106.321 12.8498C106.12 12.7353 105.899 12.6423 105.655 12.5707L103.745 12.034C102.757 11.7478 102.006 11.3113 101.491 10.7245C100.99 10.1378 100.739 9.44364 100.739 8.64219C100.739 7.92661 100.918 7.30405 101.276 6.77452C101.648 6.23068 102.156 5.80849 102.8 5.50794C103.459 5.2074 104.21 5.05713 105.054 5.05713C106.156 5.05713 107.129 5.32189 107.974 5.85142C108.69 6.30025 109.23 6.90329 109.597 7.66056C109.71 7.89484 109.596 8.16922 109.36 8.27991L108.119 8.86314C107.856 8.9871 107.546 8.85613 107.391 8.60943C107.196 8.29966 106.94 8.03866 106.621 7.82643C106.149 7.51157 105.62 7.35414 105.033 7.35414C104.561 7.35414 104.188 7.46148 103.916 7.67616C103.645 7.89083 103.509 8.16991 103.509 8.51338C103.509 8.72806 103.566 8.91411 103.68 9.07154C103.795 9.22897 103.952 9.35777 104.153 9.45795C104.367 9.55813 104.611 9.65116 104.883 9.73703L106.75 10.2952C107.709 10.5814 108.446 11.0108 108.961 11.5832C109.491 12.1557 109.756 12.857 109.756 13.687C109.756 14.3883 109.57 15.0109 109.197 15.5547C108.825 16.0842 108.31 16.4993 107.652 16.7998C106.993 17.1004 106.221 17.2506 105.333 17.2506Z" fill="#19216C"/>
<path d="M92.2103 17.2506C91.0082 17.2506 89.9563 16.9787 89.0546 16.4349C88.153 15.891 87.4517 15.154 86.9508 14.2237C86.4499 13.2935 86.1995 12.263 86.1995 11.1324C86.1995 9.95886 86.4499 8.92127 86.9508 8.01963C87.466 7.10369 88.1602 6.38095 89.0332 5.85142C89.9205 5.32189 90.908 5.05713 91.9957 5.05713C92.9116 5.05713 93.7131 5.2074 94.4 5.50794C95.1013 5.80849 95.6952 6.22353 96.1818 6.75306C96.6684 7.28259 97.0405 7.89083 97.2981 8.57779C97.5557 9.25043 97.6845 9.98033 97.6845 10.7675C97.6845 10.9678 97.6702 11.1753 97.6416 11.39C97.6365 11.4666 97.6287 11.5395 97.6181 11.6087C97.5864 11.8166 97.3943 11.9482 97.184 11.9482H89.0179C88.7418 11.9482 88.5179 11.7243 88.5179 11.4482V10.3014C88.5179 10.0253 88.7418 9.80143 89.0179 9.80143H95.0578C95.3439 9.80143 95.4661 10.165 95.2382 10.3378V10.3378C95.0197 10.5034 94.6932 10.3071 94.6901 10.033C94.6861 9.68063 94.6252 9.35298 94.5074 9.05007C94.3213 8.53485 94.0064 8.12697 93.5628 7.82643C93.1334 7.52588 92.6111 7.37561 91.9957 7.37561C91.4089 7.37561 90.8865 7.52588 90.4285 7.82643C89.9706 8.11266 89.6199 8.54201 89.3766 9.11447C89.1513 9.66381 89.0645 10.331 89.1164 11.116C89.1181 11.1412 89.118 11.1666 89.1161 11.1917C89.0651 11.8919 89.1591 12.5162 89.3981 13.0645C89.6557 13.6083 90.0278 14.0305 90.5144 14.3311C91.0153 14.6316 91.5878 14.7819 92.2318 14.7819C92.8758 14.7819 93.4197 14.6459 93.8633 14.374C94.182 14.1848 94.4521 13.9506 94.6738 13.6713C94.8387 13.4636 95.1229 13.3705 95.361 13.4873L96.7924 14.1895C97.0287 14.3054 97.1377 14.5868 97.0085 14.8161C96.7893 15.205 96.4995 15.5585 96.1389 15.8767C95.6523 16.3061 95.0727 16.6424 94.4 16.8857C93.7417 17.129 93.0118 17.2506 92.2103 17.2506Z" fill="#19216C"/>
<path d="M71.6748 21.2865C71.3987 21.2865 71.1748 21.0626 71.1748 20.7865V5.81474C71.1748 5.5386 71.3987 5.31474 71.6748 5.31474H73.4094C73.6336 5.31474 73.8153 5.49646 73.8153 5.72062V7.06377C73.8153 7.19429 73.637 7.23212 73.584 7.11285V7.11285C73.5676 7.07585 73.5707 7.03298 73.5929 6.99916C73.9901 6.39578 74.5222 5.92733 75.1892 5.59381C75.8762 5.23602 76.6705 5.05713 77.5721 5.05713C78.6741 5.05713 79.6687 5.32905 80.5561 5.87289C81.4434 6.41673 82.1447 7.14663 82.6599 8.06257C83.1894 8.97851 83.4542 10.0089 83.4542 11.1539C83.4542 12.2845 83.1966 13.3149 82.6813 14.2452C82.1661 15.1754 81.4649 15.9125 80.5775 16.4563C79.6902 16.9859 78.6812 17.2506 77.5506 17.2506C76.7062 17.2506 75.9263 17.086 75.2107 16.7569C74.5552 16.4358 74.0248 15.9897 73.6194 15.4186C73.5686 15.3471 73.5736 15.2508 73.6288 15.1825V15.1825C73.7481 15.0347 73.987 15.1191 73.987 15.3091V20.7865C73.987 21.0626 73.7632 21.2865 73.487 21.2865H71.6748ZM77.2286 14.6745C77.8726 14.6745 78.4451 14.5243 78.946 14.2237C79.4469 13.9232 79.8333 13.5081 80.1053 12.9786C80.3915 12.4491 80.5346 11.8408 80.5346 11.1539C80.5346 10.4669 80.3915 9.86583 80.1053 9.35061C79.8333 8.82108 79.4469 8.40605 78.946 8.1055C78.4451 7.79065 77.8726 7.63322 77.2286 7.63322C76.6132 7.63322 76.0551 7.78349 75.5542 8.08404C75.0676 8.38458 74.6812 8.80677 74.3949 9.35061C74.123 9.88014 73.987 10.4812 73.987 11.1539C73.987 11.8408 74.123 12.4491 74.3949 12.9786C74.6812 13.5081 75.0676 13.9232 75.5542 14.2237C76.0551 14.5243 76.6132 14.6745 77.2286 14.6745Z" fill="#19216C"/>
<path d="M61.1909 17.2506C60.3752 17.2506 59.6667 17.1147 59.0656 16.8427C58.4646 16.5708 57.9994 16.1844 57.6703 15.6835C57.3411 15.1683 57.1765 14.5744 57.1765 13.9017C57.1765 13.2577 57.3196 12.6852 57.6059 12.1843C57.8921 11.6691 58.3358 11.2397 58.9368 10.8963C59.5379 10.5528 60.2964 10.3095 61.2124 10.1664L64.4532 9.63838C64.7574 9.58882 65.0336 9.82364 65.0336 10.1319V11.2684C65.0336 11.5122 64.8577 11.7204 64.6174 11.7613L61.7491 12.2487C61.1909 12.3489 60.7759 12.5278 60.504 12.7854C60.232 13.043 60.0961 13.3793 60.0961 13.7944C60.0961 14.1951 60.2464 14.5171 60.5469 14.7604C60.8618 14.9894 61.2482 15.1039 61.7061 15.1039C62.2929 15.1039 62.8081 14.9822 63.2518 14.7389C63.7098 14.4813 64.0604 14.1307 64.3037 13.687C64.5613 13.2434 64.6901 12.7568 64.6901 12.2272V9.22181C64.6901 8.7209 64.4898 8.30587 64.089 7.9767C63.7026 7.63322 63.1874 7.46148 62.5434 7.46148C61.9423 7.46148 61.4056 7.62606 60.9333 7.95523C60.6219 8.16933 60.3667 8.43307 60.1678 8.74644C60.0127 8.99074 59.7036 9.11453 59.4433 8.98805L58.0358 8.30399C57.8041 8.19141 57.6928 7.91944 57.8084 7.68929C58.0301 7.24798 58.3275 6.85719 58.7007 6.51691C59.2016 6.05894 59.7884 5.70115 60.461 5.44354C61.1337 5.18593 61.8636 5.05713 62.6507 5.05713C63.6096 5.05713 64.454 5.23602 65.1839 5.59381C65.9138 5.93729 66.4791 6.42389 66.8798 7.0536C67.2948 7.669 67.5023 8.39174 67.5023 9.22181V16.493C67.5023 16.7692 67.2785 16.993 67.0023 16.993H65.3404C65.0642 16.993 64.8404 16.7692 64.8404 16.493V15.1931C64.8404 15.0824 64.926 14.9904 65.0365 14.9825V14.9825C65.207 14.9704 65.3186 15.1542 65.22 15.2938C64.9695 15.6487 64.6856 15.9575 64.3681 16.2202C63.9531 16.5494 63.4808 16.807 62.9513 16.993C62.4217 17.1648 61.8349 17.2506 61.1909 17.2506Z" fill="#19216C"/>
<path d="M53.0733 17.1221C51.7566 17.1221 50.7333 16.7643 50.0034 16.0487C49.2878 15.3188 48.93 14.2955 48.93 12.9789V8.3267C48.93 8.05055 48.7062 7.82669 48.43 7.82669H47.4121C47.136 7.82669 46.9121 7.60284 46.9121 7.32669V5.52968C46.9121 5.41112 47.0082 5.31501 47.1268 5.31501V5.31501C47.6992 5.31501 48.1429 5.16473 48.4578 4.86419C48.7726 4.56365 48.93 4.12714 48.93 3.55468V3.15305C48.93 2.8769 49.1539 2.65305 49.43 2.65305H51.2423C51.5184 2.65305 51.7423 2.8769 51.7423 3.15305V4.815C51.7423 5.09115 51.9661 5.31501 52.2423 5.31501H53.9257C54.2018 5.31501 54.4257 5.53886 54.4257 5.81501V7.32669C54.4257 7.60284 54.2018 7.82669 53.9257 7.82669H52.2423C51.9661 7.82669 51.7423 8.05055 51.7423 8.32669V12.8286C51.7423 13.215 51.8067 13.5442 51.9355 13.8161C52.0786 14.088 52.2933 14.2955 52.5795 14.4387C52.8801 14.5818 53.2593 14.6533 53.7173 14.6533C53.8175 14.6533 53.932 14.6462 54.0608 14.6319V14.6319C54.2785 14.6101 54.4686 14.7803 54.4686 14.9991V16.5596C54.4686 16.8085 54.2857 17.0197 54.0387 17.0495C53.9564 17.0594 53.8708 17.0693 53.7817 17.0792C53.5241 17.1078 53.2879 17.1221 53.0733 17.1221Z" fill="#19216C"/>
<path d="M39 32L41.176 26.04H41.864L44.04 32H43.368L42.856 30.544H40.192L39.672 32H39ZM40.4 29.944H42.632L41.424 26.52H41.616L40.4 29.944Z" fill="#586471"/>
<path d="M44.9067 32V27.712H45.5068V28.544L45.3707 28.512C45.4774 28.2347 45.6507 28.016 45.8907 27.856C46.1361 27.696 46.4187 27.616 46.7387 27.616C47.0427 27.616 47.3148 27.6853 47.5548 27.824C47.8001 27.9627 47.9921 28.1547 48.1307 28.4C48.2747 28.64 48.3468 28.912 48.3468 29.216V32H47.7467V29.448C47.7467 29.1867 47.6987 28.9653 47.6027 28.784C47.5121 28.6027 47.3814 28.464 47.2107 28.368C47.0454 28.2667 46.8534 28.216 46.6347 28.216C46.4161 28.216 46.2214 28.2667 46.0507 28.368C45.8801 28.464 45.7467 28.6053 45.6507 28.792C45.5547 28.9733 45.5068 29.192 45.5068 29.448V32H44.9067Z" fill="#586471"/>
<path d="M51.1721 32V27.712H51.7721V32H51.1721ZM51.1721 26.92V26.04H51.7721V26.92H51.1721Z" fill="#586471"/>
<path d="M53.1602 32V27.712H53.7602V28.544L53.6242 28.512C53.7309 28.2347 53.9042 28.016 54.1442 27.856C54.3895 27.696 54.6722 27.616 54.9922 27.616C55.2962 27.616 55.5682 27.6853 55.8082 27.824C56.0535 27.9627 56.2455 28.1547 56.3842 28.4C56.5282 28.64 56.6002 28.912 56.6002 29.216V32H56.0002V29.448C56.0002 29.1867 55.9522 28.9653 55.8562 28.784C55.7655 28.6027 55.6349 28.464 55.4642 28.368C55.2989 28.2667 55.1069 28.216 54.8882 28.216C54.6695 28.216 54.4749 28.2667 54.3042 28.368C54.1335 28.464 54.0002 28.6053 53.9042 28.792C53.8082 28.9733 53.7602 29.192 53.7602 29.448V32H53.1602Z" fill="#586471"/>
<path d="M57.9061 32V27.712H58.5061V32H57.9061ZM57.9061 26.92V26.04H58.5061V26.92H57.9061Z" fill="#586471"/>
<path d="M61.5342 32.048C61.1502 32.048 60.8542 31.936 60.6462 31.712C60.4382 31.488 60.3342 31.168 60.3342 30.752V28.312H59.5422V27.712H59.7422C59.9236 27.712 60.0676 27.6533 60.1742 27.536C60.2809 27.4133 60.3342 27.2613 60.3342 27.08V26.72H60.9342V27.712H61.8783V28.312H60.9342V30.752C60.9342 30.896 60.9556 31.024 60.9982 31.136C61.0409 31.2427 61.1129 31.328 61.2142 31.392C61.3209 31.456 61.4622 31.488 61.6382 31.488C61.6809 31.488 61.7316 31.4853 61.7902 31.48C61.8489 31.4747 61.8996 31.4693 61.9422 31.464V32C61.8782 32.016 61.8062 32.0267 61.7262 32.032C61.6462 32.0427 61.5822 32.048 61.5342 32.048Z" fill="#586471"/>
<path d="M64.3177 32.096C64.0457 32.096 63.803 32.0453 63.5897 31.944C63.3764 31.8373 63.2084 31.6933 63.0857 31.512C62.963 31.3307 62.9017 31.1227 62.9017 30.888C62.9017 30.664 62.9497 30.4613 63.0457 30.28C63.1417 30.0933 63.291 29.936 63.4937 29.808C63.6964 29.68 63.955 29.5893 64.2697 29.536L65.9497 29.256V29.8L64.4137 30.056C64.1044 30.1093 63.8804 30.208 63.7417 30.352C63.6084 30.496 63.5417 30.6667 63.5417 30.864C63.5417 31.056 63.6164 31.2187 63.7657 31.352C63.9204 31.4853 64.1177 31.552 64.3577 31.552C64.651 31.552 64.907 31.4907 65.1257 31.368C65.3444 31.24 65.515 31.0693 65.6377 30.856C65.7604 30.6427 65.8217 30.4053 65.8217 30.144V29.056C65.8217 28.8 65.7284 28.592 65.5417 28.432C65.355 28.272 65.1124 28.192 64.8137 28.192C64.5524 28.192 64.323 28.2587 64.1257 28.392C63.9284 28.52 63.7817 28.688 63.6857 28.896L63.1417 28.6C63.2217 28.4187 63.347 28.2533 63.5177 28.104C63.6937 27.9547 63.8937 27.8373 64.1177 27.752C64.3417 27.6613 64.5737 27.616 64.8137 27.616C65.1284 27.616 65.4057 27.6773 65.6457 27.8C65.891 27.9227 66.0804 28.0933 66.2137 28.312C66.3524 28.5253 66.4217 28.7733 66.4217 29.056V32H65.8217V31.144L65.9097 31.232C65.835 31.392 65.7177 31.5387 65.5577 31.672C65.403 31.8 65.219 31.904 65.0057 31.984C64.7977 32.0587 64.5684 32.096 64.3177 32.096Z" fill="#586471"/>
<path d="M69.3777 32.048C68.9937 32.048 68.6977 31.936 68.4897 31.712C68.2817 31.488 68.1777 31.168 68.1777 30.752V28.312H67.3857V27.712H67.5857C67.767 27.712 67.911 27.6533 68.0177 27.536C68.1244 27.4133 68.1777 27.2613 68.1777 27.08V26.72H68.7777V27.712H69.7217V28.312H68.7777V30.752C68.7777 30.896 68.799 31.024 68.8417 31.136C68.8844 31.2427 68.9564 31.328 69.0577 31.392C69.1644 31.456 69.3057 31.488 69.4817 31.488C69.5244 31.488 69.575 31.4853 69.6337 31.48C69.6924 31.4747 69.743 31.4693 69.7857 31.464V32C69.7217 32.016 69.6497 32.0267 69.5697 32.032C69.4897 32.0427 69.4257 32.048 69.3777 32.048Z" fill="#586471"/>
<path d="M70.9993 32V27.712H71.5993V32H70.9993ZM70.9993 26.92V26.04H71.5993V26.92H70.9993Z" fill="#586471"/>
<path d="M74.1314 32L72.4594 27.712H73.1314L74.5394 31.472H74.3234L75.7394 27.712H76.4194L74.7314 32H74.1314Z" fill="#586471"/>
<path d="M79.1541 32.096C78.7541 32.096 78.3914 32 78.0661 31.808C77.7461 31.6107 77.4927 31.3413 77.3061 31C77.1194 30.6587 77.0261 30.272 77.0261 29.84C77.0261 29.408 77.1167 29.0267 77.2981 28.696C77.4794 28.36 77.7247 28.096 78.0341 27.904C78.3487 27.712 78.7007 27.616 79.0901 27.616C79.3994 27.616 79.6741 27.6747 79.9141 27.792C80.1594 27.904 80.3674 28.0587 80.5381 28.256C80.7087 28.448 80.8394 28.6667 80.9301 28.912C81.0207 29.152 81.0661 29.4 81.0661 29.656C81.0661 29.7093 81.0634 29.7707 81.0581 29.84C81.0527 29.904 81.0447 29.9707 81.0341 30.04H77.4101V29.48H80.6901L80.4021 29.72C80.4501 29.4267 80.4154 29.1653 80.2981 28.936C80.1861 28.7013 80.0234 28.5173 79.8101 28.384C79.5967 28.2453 79.3567 28.176 79.0901 28.176C78.8234 28.176 78.5754 28.2453 78.3461 28.384C78.1221 28.5227 77.9461 28.7173 77.8181 28.968C77.6901 29.2133 77.6394 29.5067 77.6661 29.848C77.6394 30.1893 77.6927 30.488 77.8261 30.744C77.9647 30.9947 78.1514 31.1893 78.3861 31.328C78.6261 31.4667 78.8821 31.536 79.1541 31.536C79.4687 31.536 79.7327 31.4613 79.9461 31.312C80.1594 31.1627 80.3327 30.976 80.4661 30.752L80.9781 31.024C80.8927 31.216 80.7621 31.3947 80.5861 31.56C80.4101 31.72 80.1994 31.8507 79.9541 31.952C79.7141 32.048 79.4474 32.096 79.1541 32.096Z" fill="#586471"/>
<path d="M85.8113 32.096C85.406 32.096 85.038 32 84.7073 31.808C84.3766 31.6107 84.1126 31.344 83.9153 31.008C83.7233 30.6667 83.6273 30.28 83.6273 29.848C83.6273 29.4213 83.7233 29.04 83.9153 28.704C84.1073 28.368 84.366 28.104 84.6913 27.912C85.022 27.7147 85.3953 27.616 85.8113 27.616C86.2273 27.616 86.598 27.712 86.9233 27.904C87.254 28.096 87.5126 28.36 87.6993 28.696C87.8913 29.032 87.9873 29.416 87.9873 29.848C87.9873 30.2853 87.8886 30.6747 87.6913 31.016C87.494 31.352 87.23 31.616 86.8993 31.808C86.574 32 86.2113 32.096 85.8113 32.096ZM85.8113 31.496C86.0993 31.496 86.358 31.424 86.5873 31.28C86.822 31.136 87.006 30.9387 87.1393 30.688C87.278 30.4373 87.3473 30.1573 87.3473 29.848C87.3473 29.5387 87.278 29.2613 87.1393 29.016C87.006 28.7707 86.822 28.576 86.5873 28.432C86.358 28.288 86.0993 28.216 85.8113 28.216C85.5233 28.216 85.262 28.288 85.0273 28.432C84.798 28.576 84.614 28.7707 84.4753 29.016C84.3366 29.2613 84.2673 29.5387 84.2673 29.848C84.2673 30.1573 84.3366 30.4373 84.4753 30.688C84.614 30.9387 84.798 31.136 85.0273 31.28C85.262 31.424 85.5233 31.496 85.8113 31.496Z" fill="#586471"/>
<path d="M89.4893 32V28.312H88.6333V27.712H89.4893V27.328C89.4893 27.0293 89.5559 26.7787 89.6893 26.576C89.8226 26.368 89.9986 26.2107 90.2173 26.104C90.4359 25.9973 90.6706 25.944 90.9213 25.944C90.9746 25.944 91.0359 25.9493 91.1053 25.96C91.1746 25.9653 91.2306 25.9733 91.2733 25.984V26.528C91.2359 26.5173 91.1853 26.512 91.1213 26.512C91.0573 26.5067 91.0119 26.504 90.9853 26.504C90.7293 26.504 90.5159 26.5653 90.3453 26.688C90.1746 26.8107 90.0893 27.024 90.0893 27.328V27.712H91.1373V28.312H90.0893V32H89.4893Z" fill="#586471"/>
<path d="M95.5093 32.048C95.1253 32.048 94.8293 31.936 94.6213 31.712C94.4133 31.488 94.3092 31.168 94.3092 30.752V28.312H93.5173V27.712H93.7173C93.8986 27.712 94.0426 27.6533 94.1493 27.536C94.2559 27.4133 94.3092 27.2613 94.3092 27.08V26.72H94.9093V27.712H95.8533V28.312H94.9093V30.752C94.9093 30.896 94.9306 31.024 94.9733 31.136C95.0159 31.2427 95.0879 31.328 95.1893 31.392C95.2959 31.456 95.4373 31.488 95.6133 31.488C95.6559 31.488 95.7066 31.4853 95.7653 31.48C95.8239 31.4747 95.8746 31.4693 95.9173 31.464V32C95.8533 32.016 95.7813 32.0267 95.7013 32.032C95.6213 32.0427 95.5573 32.048 95.5093 32.048Z" fill="#586471"/>
<path d="M97.1308 32V25.944H97.7308V28.544L97.5948 28.512C97.7015 28.2347 97.8748 28.016 98.1148 27.856C98.3601 27.696 98.6428 27.616 98.9628 27.616C99.2668 27.616 99.5388 27.6853 99.7788 27.824C100.024 27.9627 100.216 28.1547 100.355 28.4C100.499 28.64 100.571 28.912 100.571 29.216V32H99.9708V29.448C99.9708 29.1867 99.9228 28.9653 99.8268 28.784C99.7308 28.6027 99.5975 28.464 99.4268 28.368C99.2615 28.2667 99.0721 28.216 98.8588 28.216C98.6455 28.216 98.4535 28.2667 98.2828 28.368C98.1121 28.464 97.9761 28.6053 97.8748 28.792C97.7788 28.9733 97.7308 29.192 97.7308 29.448V32H97.1308Z" fill="#586471"/>
<path d="M103.829 32.096C103.429 32.096 103.066 32 102.741 31.808C102.421 31.6107 102.167 31.3413 101.981 31C101.794 30.6587 101.701 30.272 101.701 29.84C101.701 29.408 101.791 29.0267 101.973 28.696C102.154 28.36 102.399 28.096 102.709 27.904C103.023 27.712 103.375 27.616 103.765 27.616C104.074 27.616 104.349 27.6747 104.589 27.792C104.834 27.904 105.042 28.0587 105.213 28.256C105.383 28.448 105.514 28.6667 105.605 28.912C105.695 29.152 105.741 29.4 105.741 29.656C105.741 29.7093 105.738 29.7707 105.733 29.84C105.727 29.904 105.719 29.9707 105.709 30.04H102.085V29.48H105.365L105.077 29.72C105.125 29.4267 105.09 29.1653 104.973 28.936C104.861 28.7013 104.698 28.5173 104.485 28.384C104.271 28.2453 104.031 28.176 103.765 28.176C103.498 28.176 103.25 28.2453 103.021 28.384C102.797 28.5227 102.621 28.7173 102.493 28.968C102.365 29.2133 102.314 29.5067 102.341 29.848C102.314 30.1893 102.367 30.488 102.501 30.744C102.639 30.9947 102.826 31.1893 103.061 31.328C103.301 31.4667 103.557 31.536 103.829 31.536C104.143 31.536 104.407 31.4613 104.621 31.312C104.834 31.1627 105.007 30.976 105.141 30.752L105.653 31.024C105.567 31.216 105.437 31.3947 105.261 31.56C105.085 31.72 104.874 31.8507 104.629 31.952C104.389 32.048 104.122 32.096 103.829 32.096Z" fill="#586471"/>
<path d="M108.566 32V26.04H109.206V32H108.566Z" fill="#586471"/>
<path d="M110.685 32V27.712H111.285V28.544L111.149 28.512C111.256 28.2347 111.429 28.016 111.669 27.856C111.914 27.696 112.197 27.616 112.517 27.616C112.821 27.616 113.093 27.6853 113.333 27.824C113.578 27.9627 113.77 28.1547 113.909 28.4C114.053 28.64 114.125 28.912 114.125 29.216V32H113.525V29.448C113.525 29.1867 113.477 28.9653 113.381 28.784C113.29 28.6027 113.16 28.464 112.989 28.368C112.824 28.2667 112.632 28.216 112.413 28.216C112.194 28.216 112 28.2667 111.829 28.368C111.658 28.464 111.525 28.6053 111.429 28.792C111.333 28.9733 111.285 29.192 111.285 29.448V32H110.685Z" fill="#586471"/>
<path d="M117.071 32.048C116.687 32.048 116.391 31.936 116.183 31.712C115.975 31.488 115.871 31.168 115.871 30.752V28.312H115.079V27.712H115.279C115.46 27.712 115.604 27.6533 115.711 27.536C115.817 27.4133 115.871 27.2613 115.871 27.08V26.72H116.471V27.712H117.415V28.312H116.471V30.752C116.471 30.896 116.492 31.024 116.535 31.136C116.577 31.2427 116.649 31.328 116.751 31.392C116.857 31.456 116.999 31.488 117.175 31.488C117.217 31.488 117.268 31.4853 117.327 31.48C117.385 31.4747 117.436 31.4693 117.479 31.464V32C117.415 32.016 117.343 32.0267 117.263 32.032C117.183 32.0427 117.119 32.048 117.071 32.048Z" fill="#586471"/>
<path d="M120.488 32.096C120.088 32.096 119.725 32 119.4 31.808C119.08 31.6107 118.827 31.3413 118.64 31C118.453 30.6587 118.36 30.272 118.36 29.84C118.36 29.408 118.451 29.0267 118.632 28.696C118.813 28.36 119.059 28.096 119.368 27.904C119.683 27.712 120.035 27.616 120.424 27.616C120.733 27.616 121.008 27.6747 121.248 27.792C121.493 27.904 121.701 28.0587 121.872 28.256C122.043 28.448 122.173 28.6667 122.264 28.912C122.355 29.152 122.4 29.4 122.4 29.656C122.4 29.7093 122.397 29.7707 122.392 29.84C122.387 29.904 122.379 29.9707 122.368 30.04H118.744V29.48H122.024L121.736 29.72C121.784 29.4267 121.749 29.1653 121.632 28.936C121.52 28.7013 121.357 28.5173 121.144 28.384C120.931 28.2453 120.691 28.176 120.424 28.176C120.157 28.176 119.909 28.2453 119.68 28.384C119.456 28.5227 119.28 28.7173 119.152 28.968C119.024 29.2133 118.973 29.5067 119 29.848C118.973 30.1893 119.027 30.488 119.16 30.744C119.299 30.9947 119.485 31.1893 119.72 31.328C119.96 31.4667 120.216 31.536 120.488 31.536C120.803 31.536 121.067 31.4613 121.28 31.312C121.493 31.1627 121.667 30.976 121.8 30.752L122.312 31.024C122.227 31.216 122.096 31.3947 121.92 31.56C121.744 31.72 121.533 31.8507 121.288 31.952C121.048 32.048 120.781 32.096 120.488 32.096Z" fill="#586471"/>
<path d="M123.618 32V27.712H124.218V28.416L124.138 28.312C124.239 28.1093 124.391 27.9493 124.594 27.832C124.802 27.7147 125.053 27.656 125.346 27.656H125.618V28.256H125.242C124.933 28.256 124.685 28.352 124.498 28.544C124.311 28.736 124.218 29.008 124.218 29.36V32H123.618Z" fill="#586471"/>
<path d="M126.481 32V27.712H127.081V28.544L126.945 28.512C127.052 28.2347 127.225 28.016 127.465 27.856C127.71 27.696 127.993 27.616 128.313 27.616C128.617 27.616 128.889 27.6853 129.129 27.824C129.374 27.9627 129.566 28.1547 129.705 28.4C129.849 28.64 129.921 28.912 129.921 29.216V32H129.321V29.448C129.321 29.1867 129.273 28.9653 129.177 28.784C129.086 28.6027 128.956 28.464 128.785 28.368C128.62 28.2667 128.428 28.216 128.209 28.216C127.99 28.216 127.796 28.2667 127.625 28.368C127.454 28.464 127.321 28.6053 127.225 28.792C127.129 28.9733 127.081 29.192 127.081 29.448V32H126.481Z" fill="#586471"/>
<path d="M133.179 32.096C132.779 32.096 132.416 32 132.091 31.808C131.771 31.6107 131.518 31.3413 131.331 31C131.144 30.6587 131.051 30.272 131.051 29.84C131.051 29.408 131.142 29.0267 131.323 28.696C131.504 28.36 131.75 28.096 132.059 27.904C132.374 27.712 132.726 27.616 133.115 27.616C133.424 27.616 133.699 27.6747 133.939 27.792C134.184 27.904 134.392 28.0587 134.563 28.256C134.734 28.448 134.864 28.6667 134.955 28.912C135.046 29.152 135.091 29.4 135.091 29.656C135.091 29.7093 135.088 29.7707 135.083 29.84C135.078 29.904 135.07 29.9707 135.059 30.04H131.435V29.48H134.715L134.427 29.72C134.475 29.4267 134.44 29.1653 134.323 28.936C134.211 28.7013 134.048 28.5173 133.835 28.384C133.622 28.2453 133.382 28.176 133.115 28.176C132.848 28.176 132.6 28.2453 132.371 28.384C132.147 28.5227 131.971 28.7173 131.843 28.968C131.715 29.2133 131.664 29.5067 131.691 29.848C131.664 30.1893 131.718 30.488 131.851 30.744C131.99 30.9947 132.176 31.1893 132.411 31.328C132.651 31.4667 132.907 31.536 133.179 31.536C133.494 31.536 133.758 31.4613 133.971 31.312C134.184 31.1627 134.358 30.976 134.491 30.752L135.003 31.024C134.918 31.216 134.787 31.3947 134.611 31.56C134.435 31.72 134.224 31.8507 133.979 31.952C133.739 32.048 133.472 32.096 133.179 32.096Z" fill="#586471"/>
<path d="M137.949 32.048C137.565 32.048 137.269 31.936 137.061 31.712C136.853 31.488 136.749 31.168 136.749 30.752V28.312H135.957V27.712H136.157C136.338 27.712 136.482 27.6533 136.589 27.536C136.696 27.4133 136.749 27.2613 136.749 27.08V26.72H137.349V27.712H138.293V28.312H137.349V30.752C137.349 30.896 137.37 31.024 137.413 31.136C137.456 31.2427 137.528 31.328 137.629 31.392C137.736 31.456 137.877 31.488 138.053 31.488C138.096 31.488 138.146 31.4853 138.205 31.48C138.264 31.4747 138.314 31.4693 138.357 31.464V32C138.293 32.016 138.221 32.0267 138.141 32.032C138.061 32.0427 137.997 32.048 137.949 32.048Z" fill="#586471"/>
<path d="M140.562 32L142.738 26.04H143.426L145.602 32H144.93L144.418 30.544H141.754L141.234 32H140.562ZM141.962 29.944H144.194L142.986 26.52H143.178L141.962 29.944Z" fill="#586471"/>
<path d="M146.469 32V27.712H147.069V28.416L146.989 28.312C147.09 28.1093 147.242 27.9493 147.445 27.832C147.653 27.7147 147.903 27.656 148.197 27.656H148.469V28.256H148.093C147.783 28.256 147.535 28.352 147.349 28.544C147.162 28.736 147.069 29.008 147.069 29.36V32H146.469Z" fill="#586471"/>
<path d="M151.292 32.096C150.87 32.096 150.5 31.9973 150.18 31.8C149.86 31.6027 149.609 31.336 149.428 31C149.246 30.6587 149.156 30.2747 149.156 29.848C149.156 29.4213 149.246 29.04 149.428 28.704C149.609 28.368 149.86 28.104 150.18 27.912C150.5 27.7147 150.87 27.616 151.292 27.616C151.558 27.616 151.809 27.664 152.044 27.76C152.278 27.856 152.486 27.9867 152.668 28.152C152.849 28.312 152.985 28.4987 153.076 28.712L152.532 28.992C152.425 28.7627 152.262 28.576 152.044 28.432C151.825 28.288 151.574 28.216 151.292 28.216C151.009 28.216 150.753 28.288 150.524 28.432C150.3 28.5707 150.121 28.7653 149.988 29.016C149.86 29.2613 149.796 29.5413 149.796 29.856C149.796 30.1653 149.86 30.4453 149.988 30.696C150.121 30.9413 150.3 31.136 150.524 31.28C150.753 31.424 151.009 31.496 151.292 31.496C151.574 31.496 151.822 31.424 152.036 31.28C152.254 31.136 152.42 30.944 152.532 30.704L153.076 31C152.985 31.208 152.849 31.3947 152.668 31.56C152.486 31.7253 152.278 31.856 152.044 31.952C151.809 32.048 151.558 32.096 151.292 32.096Z" fill="#586471"/>
<path d="M154.289 32V25.944H154.889V28.544L154.753 28.512C154.859 28.2347 155.033 28.016 155.273 27.856C155.518 27.696 155.801 27.616 156.121 27.616C156.425 27.616 156.697 27.6853 156.937 27.824C157.182 27.9627 157.374 28.1547 157.513 28.4C157.657 28.64 157.729 28.912 157.729 29.216V32H157.129V29.448C157.129 29.1867 157.081 28.9653 156.985 28.784C156.889 28.6027 156.755 28.464 156.585 28.368C156.419 28.2667 156.23 28.216 156.017 28.216C155.803 28.216 155.611 28.2667 155.441 28.368C155.27 28.464 155.134 28.6053 155.033 28.792C154.937 28.9733 154.889 29.192 154.889 29.448V32H154.289Z" fill="#586471"/>
<path d="M159.035 32V27.712H159.635V32H159.035ZM159.035 26.92V26.04H159.635V26.92H159.035Z" fill="#586471"/>
<path d="M162.167 32L160.495 27.712H161.167L162.575 31.472H162.359L163.775 27.712H164.455L162.767 32H162.167Z" fill="#586471"/>
<path d="M167.189 32.096C166.789 32.096 166.427 32 166.101 31.808C165.781 31.6107 165.528 31.3413 165.341 31C165.155 30.6587 165.061 30.272 165.061 29.84C165.061 29.408 165.152 29.0267 165.333 28.696C165.515 28.36 165.76 28.096 166.069 27.904C166.384 27.712 166.736 27.616 167.125 27.616C167.435 27.616 167.709 27.6747 167.949 27.792C168.195 27.904 168.403 28.0587 168.573 28.256C168.744 28.448 168.875 28.6667 168.965 28.912C169.056 29.152 169.101 29.4 169.101 29.656C169.101 29.7093 169.099 29.7707 169.093 29.84C169.088 29.904 169.08 29.9707 169.069 30.04H165.445V29.48H168.725L168.437 29.72C168.485 29.4267 168.451 29.1653 168.333 28.936C168.221 28.7013 168.059 28.5173 167.845 28.384C167.632 28.2453 167.392 28.176 167.125 28.176C166.859 28.176 166.611 28.2453 166.381 28.384C166.157 28.5227 165.981 28.7173 165.853 28.968C165.725 29.2133 165.675 29.5067 165.701 29.848C165.675 30.1893 165.728 30.488 165.861 30.744C166 30.9947 166.187 31.1893 166.421 31.328C166.661 31.4667 166.917 31.536 167.189 31.536C167.504 31.536 167.768 31.4613 167.981 31.312C168.195 31.1627 168.368 30.976 168.501 30.752L169.013 31.024C168.928 31.216 168.797 31.3947 168.621 31.56C168.445 31.72 168.235 31.8507 167.989 31.952C167.749 32.048 167.483 32.096 167.189 32.096Z" fill="#586471"/>
</svg>
