<?xml version="1.0" encoding="UTF-8"?>
<svg id="Layer_1" xmlns="http://www.w3.org/2000/svg" version="1.1" viewBox="0 0 172.5 37">
  <!-- Generator: Adobe Illustrator 29.7.1, SVG Export Plug-In . SVG Version: 2.1.1 Build 8)  -->
  <defs>
    <style>
      .st0 {
        fill: #19216c;
      }

      .st1 {
        fill: #586471;
      }

      .st2 {
        fill: #f9703e;
      }
    </style>
  </defs>
  <path class="st0" d="M14.6,36.7h-2.9c-.4,0-.7-.3-.7-.8v-19.6c0-.4-.3-.8-.7-.8H.7c-.4,0-.7-.3-.7-.8V.8C0,.3.3,0,.7,0h36.1C37.2,0,37.6.3,37.6.8v14c0,.4-.3.8-.7.8h-10.3c-.4,0-.7.3-.7.8v8.5c0,.4-.3.8-.7.8h-2.9c-.4,0-.7-.3-.7-.8v-13c0-.4.3-.8.7-.8h10.3c.4,0,.7-.3.7-.8v-4.9c0-.4-.3-.8-.7-.8H5.1c-.4,0-.7.3-.7.8v4.9c0,.4.3.8.7.8h9.5c.4,0,.7.3.7.8v24.1c0,.4-.3.8-.7.8Z"/>
  <path class="st0" d="M26.6,24.6h-6.1c-.3,0-.5.4-.3.7l3,3.9c0,0,.2.1.3.1s.2,0,.3-.1l3-3.9c.2-.3,0-.7-.3-.7Z"/>
  <path class="st2" d="M26.6,24.6h-6.1c-.3,0-.5.4-.3.7l3,3.9c0,0,.2.1.3.1s.2,0,.3-.1l3-3.9c.2-.3,0-.7-.3-.7Z"/>
  <path class="st0" d="M157.2,17.3c-1.2,0-2.3-.3-3.3-.9-.8-.5-1.4-1.2-1.7-2-.1-.2,0-.5.2-.6l1.2-.6c.3-.1.6,0,.7.2.3.4.6.8,1,1.1.5.4,1.1.6,1.8.6s.9-.1,1.2-.3c.3-.2.5-.5.5-.9s0-.4-.2-.6c-.1-.2-.3-.3-.5-.4-.2-.1-.4-.2-.7-.3l-1.9-.5c-1-.3-1.7-.7-2.3-1.3-.5-.6-.8-1.3-.8-2.1s.2-1.3.5-1.9c.4-.5.9-1,1.5-1.3.7-.3,1.4-.5,2.3-.5s2.1.3,2.9.8c.7.4,1.3,1.1,1.6,1.8.1.2,0,.5-.2.6l-1.2.6c-.3.1-.6,0-.7-.3-.2-.3-.5-.6-.8-.8-.5-.3-1-.5-1.6-.5s-.8.1-1.1.3c-.3.2-.4.5-.4.8s0,.4.2.6c.1.2.3.3.5.4.2.1.5.2.7.3l1.9.6c1,.3,1.7.7,2.2,1.3.5.6.8,1.3.8,2.1s-.2,1.3-.6,1.9c-.4.5-.9.9-1.5,1.2-.7.3-1.4.5-2.3.5Z"/>
  <path class="st0" d="M144.1,17.3c-1.2,0-2.3-.3-3.2-.8-.9-.5-1.6-1.3-2.1-2.2-.5-.9-.8-2-.8-3.1s.2-2.2.8-3.1c.5-.9,1.2-1.6,2.1-2.2.9-.5,1.9-.8,3-.8s1.7.2,2.4.5c.7.3,1.3.7,1.8,1.2.5.5.9,1.1,1.1,1.8.3.7.4,1.4.4,2.2s0,.4,0,.6c0,0,0,.1,0,.2,0,.2-.2.3-.4.3h-8.2c-.3,0-.5-.2-.5-.5v-1.1c0-.3.2-.5.5-.5h6c.3,0,.4.4.2.5h0c-.2.2-.5,0-.5-.3,0-.4,0-.7-.2-1-.2-.5-.5-.9-.9-1.2-.4-.3-1-.5-1.6-.5s-1.1.2-1.6.5c-.5.3-.8.7-1.1,1.3-.2.5-.3,1.2-.3,2,0,0,0,0,0,0,0,.7,0,1.3.3,1.9.3.5.6,1,1.1,1.3.5.3,1.1.5,1.7.5s1.2-.1,1.6-.4c.3-.2.6-.4.8-.7.2-.2.4-.3.7-.2l1.4.7c.2.1.3.4.2.6-.2.4-.5.7-.9,1.1-.5.4-1.1.8-1.7,1-.7.2-1.4.4-2.2.4Z"/>
  <path class="st0" d="M132.5,17c-.3,0-.5-.2-.5-.5V5.8c0-.3.2-.5.5-.5h1.8c.3,0,.5.2.5.5v10.7c0,.3-.2.5-.5.5h-1.8ZM132.5,4c-.3,0-.5-.2-.5-.5V1.5c0-.3.2-.5.5-.5h1.8c.3,0,.5.2.5.5v2c0,.3-.2.5-.5.5h-1.8Z"/>
  <path class="st0" d="M123.4,17c-.3,0-.5-.2-.5-.5V5.8c0-.3.2-.5.5-.5h1.6c.3,0,.5.2.5.5v1.7c0,.1-.1.1-.2,0h0s0,0,0,0c.3-.9.7-1.4,1.3-1.8.6-.3,1.3-.5,2.1-.5h.2c.3,0,.5.2.5.5v1.5c0,.3-.2.5-.5.5h-.5c-.8,0-1.4.3-1.9.8-.5.5-.7,1.2-.7,2.1v6c0,.3-.2.5-.5.5h-1.8Z"/>
  <path class="st0" d="M118.3,17.1c-1.3,0-2.3-.4-3.1-1.1-.7-.7-1.1-1.8-1.1-3.1v-4.7c0-.3-.2-.5-.5-.5h-1c-.3,0-.5-.2-.5-.5v-1.8c0-.1,0-.2.2-.2h0c.6,0,1-.2,1.3-.5.3-.3.5-.7.5-1.3v-.4c0-.3.2-.5.5-.5h1.8c.3,0,.5.2.5.5v1.7c0,.3.2.5.5.5h1.7c.3,0,.5.2.5.5v1.5c0,.3-.2.5-.5.5h-1.7c-.3,0-.5.2-.5.5v4.5c0,.4,0,.7.2,1,.1.3.4.5.6.6.3.1.7.2,1.1.2s.2,0,.3,0h0c.2,0,.4.1.4.4v1.6c0,.2-.2.5-.4.5,0,0-.2,0-.3,0-.3,0-.5,0-.7,0Z"/>
  <path class="st0" d="M105.3,17.3c-1.2,0-2.3-.3-3.3-.9-.8-.5-1.4-1.2-1.7-2-.1-.2,0-.5.2-.6l1.2-.6c.3-.1.6,0,.7.2.3.4.6.8,1,1.1.5.4,1.1.6,1.8.6s.9-.1,1.2-.3.5-.5.5-.9,0-.4-.2-.6c-.1-.2-.3-.3-.5-.4-.2-.1-.4-.2-.7-.3l-1.9-.5c-1-.3-1.7-.7-2.3-1.3-.5-.6-.8-1.3-.8-2.1s.2-1.3.5-1.9c.4-.5.9-1,1.5-1.3.7-.3,1.4-.5,2.3-.5s2.1.3,2.9.8c.7.4,1.3,1.1,1.6,1.8.1.2,0,.5-.2.6l-1.2.6c-.3.1-.6,0-.7-.3-.2-.3-.5-.6-.8-.8-.5-.3-1-.5-1.6-.5s-.8.1-1.1.3c-.3.2-.4.5-.4.8s0,.4.2.6c.1.2.3.3.5.4.2.1.5.2.7.3l1.9.6c1,.3,1.7.7,2.2,1.3.5.6.8,1.3.8,2.1s-.2,1.3-.6,1.9c-.4.5-.9.9-1.5,1.2-.7.3-1.4.5-2.3.5Z"/>
  <path class="st0" d="M92.2,17.3c-1.2,0-2.3-.3-3.2-.8-.9-.5-1.6-1.3-2.1-2.2-.5-.9-.8-2-.8-3.1s.3-2.2.8-3.1c.5-.9,1.2-1.6,2.1-2.2.9-.5,1.9-.8,3-.8s1.7.2,2.4.5c.7.3,1.3.7,1.8,1.2s.9,1.1,1.1,1.8c.3.7.4,1.4.4,2.2s0,.4,0,.6c0,0,0,.1,0,.2,0,.2-.2.3-.4.3h-8.2c-.3,0-.5-.2-.5-.5v-1.1c0-.3.2-.5.5-.5h6c.3,0,.4.4.2.5h0c-.2.2-.5,0-.5-.3,0-.4,0-.7-.2-1-.2-.5-.5-.9-.9-1.2-.4-.3-1-.5-1.6-.5s-1.1.2-1.6.5c-.5.3-.8.7-1.1,1.3-.2.5-.3,1.2-.3,2,0,0,0,0,0,0,0,.7,0,1.3.3,1.9.3.5.6,1,1.1,1.3.5.3,1.1.5,1.7.5s1.2-.1,1.6-.4c.3-.2.6-.4.8-.7.2-.2.4-.3.7-.2l1.4.7c.2.1.3.4.2.6-.2.4-.5.7-.9,1.1-.5.4-1.1.8-1.7,1-.7.2-1.4.4-2.2.4Z"/>
  <path class="st0" d="M71.7,21.3c-.3,0-.5-.2-.5-.5V5.8c0-.3.2-.5.5-.5h1.7c.2,0,.4.2.4.4v1.3c0,.1-.2.2-.2,0h0s0,0,0-.1c.4-.6.9-1.1,1.6-1.4.7-.4,1.5-.5,2.4-.5s2.1.3,3,.8c.9.5,1.6,1.3,2.1,2.2.5.9.8,1.9.8,3.1s-.3,2.2-.8,3.1c-.5.9-1.2,1.7-2.1,2.2-.9.5-1.9.8-3,.8s-1.6-.2-2.3-.5c-.7-.3-1.2-.8-1.6-1.3,0,0,0-.2,0-.2h0c.1-.1.4,0,.4.1v5.5c0,.3-.2.5-.5.5h-1.8ZM77.2,14.7c.6,0,1.2-.2,1.7-.5.5-.3.9-.7,1.2-1.2.3-.5.4-1.1.4-1.8s-.1-1.3-.4-1.8c-.3-.5-.7-.9-1.2-1.2-.5-.3-1.1-.5-1.7-.5s-1.2.2-1.7.5c-.5.3-.9.7-1.2,1.3-.3.5-.4,1.1-.4,1.8s.1,1.3.4,1.8c.3.5.7.9,1.2,1.2.5.3,1.1.5,1.7.5Z"/>
  <path class="st0" d="M61.2,17.3c-.8,0-1.5-.1-2.1-.4-.6-.3-1.1-.7-1.4-1.2-.3-.5-.5-1.1-.5-1.8s.1-1.2.4-1.7c.3-.5.7-.9,1.3-1.3.6-.3,1.4-.6,2.3-.7l3.2-.5c.3,0,.6.2.6.5v1.1c0,.2-.2.5-.4.5l-2.9.5c-.6.1-1,.3-1.2.5-.3.3-.4.6-.4,1s.2.7.5,1c.3.2.7.3,1.2.3s1.1-.1,1.5-.4c.5-.3.8-.6,1.1-1.1.3-.4.4-.9.4-1.5v-3c0-.5-.2-.9-.6-1.2-.4-.3-.9-.5-1.5-.5s-1.1.2-1.6.5c-.3.2-.6.5-.8.8-.2.2-.5.4-.7.2l-1.4-.7c-.2-.1-.3-.4-.2-.6.2-.4.5-.8.9-1.2.5-.5,1.1-.8,1.8-1.1.7-.3,1.4-.4,2.2-.4s1.8.2,2.5.5c.7.3,1.3.8,1.7,1.5.4.6.6,1.3.6,2.2v7.3c0,.3-.2.5-.5.5h-1.7c-.3,0-.5-.2-.5-.5v-1.3c0-.1,0-.2.2-.2h0c.2,0,.3.2.2.3-.3.4-.5.7-.9.9-.4.3-.9.6-1.4.8-.5.2-1.1.3-1.8.3Z"/>
  <path class="st0" d="M53.1,17.1c-1.3,0-2.3-.4-3.1-1.1-.7-.7-1.1-1.8-1.1-3.1v-4.7c0-.3-.2-.5-.5-.5h-1c-.3,0-.5-.2-.5-.5v-1.8c0-.1,0-.2.2-.2h0c.6,0,1-.2,1.3-.5.3-.3.5-.7.5-1.3v-.4c0-.3.2-.5.5-.5h1.8c.3,0,.5.2.5.5v1.7c0,.3.2.5.5.5h1.7c.3,0,.5.2.5.5v1.5c0,.3-.2.5-.5.5h-1.7c-.3,0-.5.2-.5.5v4.5c0,.4,0,.7.2,1,.1.3.4.5.6.6.3.1.7.2,1.1.2s.2,0,.3,0h0c.2,0,.4.1.4.4v1.6c0,.2-.2.5-.4.5,0,0-.2,0-.3,0-.3,0-.5,0-.7,0Z"/>
  <path class="st1" d="M39,32l2.2-6h.7l2.2,6h-.7l-.5-1.5h-2.7l-.5,1.5h-.7ZM40.4,29.9h2.2l-1.2-3.4h.2l-1.2,3.4Z"/>
  <path class="st1" d="M44.9,32v-4.3h.6v.8h-.1c.1-.3.3-.5.5-.7.2-.2.5-.2.8-.2s.6,0,.8.2c.2.1.4.3.6.6.1.2.2.5.2.8v2.8h-.6v-2.6c0-.3,0-.5-.1-.7,0-.2-.2-.3-.4-.4-.2-.1-.4-.2-.6-.2s-.4,0-.6.2c-.2,0-.3.2-.4.4,0,.2-.1.4-.1.7v2.6h-.6Z"/>
  <path class="st1" d="M51.2,32v-4.3h.6v4.3h-.6ZM51.2,26.9v-.9h.6v.9h-.6Z"/>
  <path class="st1" d="M53.2,32v-4.3h.6v.8h-.1c.1-.3.3-.5.5-.7.2-.2.5-.2.8-.2s.6,0,.8.2c.2.1.4.3.6.6.1.2.2.5.2.8v2.8h-.6v-2.6c0-.3,0-.5-.1-.7,0-.2-.2-.3-.4-.4-.2-.1-.4-.2-.6-.2s-.4,0-.6.2c-.2,0-.3.2-.4.4,0,.2-.1.4-.1.7v2.6h-.6Z"/>
  <path class="st1" d="M57.9,32v-4.3h.6v4.3h-.6ZM57.9,26.9v-.9h.6v.9h-.6Z"/>
  <path class="st1" d="M61.5,32c-.4,0-.7-.1-.9-.3-.2-.2-.3-.5-.3-1v-2.4h-.8v-.6h.2c.2,0,.3,0,.4-.2.1-.1.2-.3.2-.5v-.4h.6v1h.9v.6h-.9v2.4c0,.1,0,.3,0,.4,0,.1.1.2.2.3.1,0,.2,0,.4,0s0,0,.2,0c0,0,.1,0,.2,0v.5c0,0-.1,0-.2,0,0,0-.1,0-.2,0Z"/>
  <path class="st1" d="M65.5,32.1c-.3,0-.5,0-.7-.2-.2-.1-.4-.3-.5-.4-.1-.2-.2-.4-.2-.6s0-.4.1-.6c0-.2.2-.3.4-.5.2-.1.5-.2.8-.3l1.7-.3v.5l-1.5.3c-.3,0-.5.2-.7.3-.1.1-.2.3-.2.5s0,.4.2.5c.2.1.4.2.6.2s.5,0,.8-.2c.2-.1.4-.3.5-.5.1-.2.2-.5.2-.7v-1.1c0-.3,0-.5-.3-.6s-.4-.2-.7-.2-.5,0-.7.2c-.2.1-.3.3-.4.5l-.5-.3c0-.2.2-.3.4-.5.2-.1.4-.3.6-.4.2,0,.5-.1.7-.1s.6,0,.8.2c.2.1.4.3.6.5.1.2.2.5.2.7v2.9h-.6v-.9h0c0,.2-.2.4-.4.5-.2.1-.3.2-.6.3-.2,0-.4.1-.7.1Z"/>
  <path class="st1" d="M70.6,32c-.4,0-.7-.1-.9-.3-.2-.2-.3-.5-.3-1v-2.4h-.8v-.6h.2c.2,0,.3,0,.4-.2.1-.1.2-.3.2-.5v-.4h.6v1h.9v.6h-.9v2.4c0,.1,0,.3,0,.4,0,.1.1.2.2.3.1,0,.2,0,.4,0s0,0,.2,0c0,0,.1,0,.2,0v.5c0,0-.1,0-.2,0,0,0-.1,0-.2,0Z"/>
  <path class="st1" d="M72.2,32v-4.3h.6v4.3h-.6ZM72.2,26.9v-.9h.6v.9h-.6Z"/>
  <path class="st1" d="M62.7,32v-4.3h.6v4.3h-.6ZM62.7,26.9v-.9h.6v.9h-.6Z"/>
  <path class="st1" d="M75.3,32l-1.7-4.3h.7l1.4,3.8h-.2l1.4-3.8h.7l-1.7,4.3h-.6Z"/>
  <path class="st1" d="M80.3,32.1c-.4,0-.8,0-1.1-.3-.3-.2-.6-.5-.8-.8-.2-.3-.3-.7-.3-1.2s0-.8.3-1.1c.2-.3.4-.6.7-.8.3-.2.7-.3,1.1-.3s.6,0,.8.2c.2.1.5.3.6.5.2.2.3.4.4.7,0,.2.1.5.1.7s0,.1,0,.2c0,0,0,.1,0,.2h-3.6v-.6h3.3l-.3.2c0-.3,0-.6-.1-.8-.1-.2-.3-.4-.5-.6-.2-.1-.5-.2-.7-.2s-.5,0-.7.2c-.2.1-.4.3-.5.6-.1.2-.2.5-.2.9,0,.3,0,.6.2.9.1.3.3.4.6.6.2.1.5.2.8.2s.6,0,.8-.2c.2-.1.4-.3.5-.6l.5.3c0,.2-.2.4-.4.5-.2.2-.4.3-.6.4-.2,0-.5.1-.8.1Z"/>
  <path class="st1" d="M87,32.1c-.4,0-.8,0-1.1-.3-.3-.2-.6-.5-.8-.8-.2-.3-.3-.7-.3-1.2s0-.8.3-1.1.5-.6.8-.8c.3-.2.7-.3,1.1-.3s.8,0,1.1.3c.3.2.6.5.8.8.2.3.3.7.3,1.2s0,.8-.3,1.2c-.2.3-.5.6-.8.8-.3.2-.7.3-1.1.3ZM87,31.5c.3,0,.5,0,.8-.2.2-.1.4-.3.6-.6.1-.3.2-.5.2-.8s0-.6-.2-.8c-.1-.2-.3-.4-.6-.6-.2-.1-.5-.2-.8-.2s-.5,0-.8.2c-.2.1-.4.3-.6.6-.1.2-.2.5-.2.8s0,.6.2.8c.1.3.3.4.6.6.2.1.5.2.8.2Z"/>
  <path class="st1" d="M90.7,32v-3.7h-.9v-.6h.9v-.4c0-.3,0-.5.2-.8.1-.2.3-.4.5-.5.2-.1.5-.2.7-.2s.1,0,.2,0c0,0,.1,0,.2,0v.5s0,0-.2,0c0,0-.1,0-.1,0-.3,0-.5,0-.6.2-.2.1-.3.3-.3.6v.4h1v.6h-1v3.7h-.6Z"/>
  <path class="st1" d="M96.7,32c-.4,0-.7-.1-.9-.3-.2-.2-.3-.5-.3-1v-2.4h-.8v-.6h.2c.2,0,.3,0,.4-.2.1-.1.2-.3.2-.5v-.4h.6v1h.9v.6h-.9v2.4c0,.1,0,.3,0,.4,0,.1.1.2.2.3.1,0,.2,0,.4,0s0,0,.2,0c0,0,.1,0,.2,0v.5c0,0-.1,0-.2,0,0,0-.1,0-.2,0Z"/>
  <path class="st1" d="M98.3,32v-6.1h.6v2.6h-.1c.1-.3.3-.5.5-.7.2-.2.5-.2.8-.2s.6,0,.8.2c.2.1.4.3.6.6.1.2.2.5.2.8v2.8h-.6v-2.6c0-.3,0-.5-.1-.7,0-.2-.2-.3-.4-.4-.2-.1-.4-.2-.6-.2s-.4,0-.6.2c-.2,0-.3.2-.4.4,0,.2-.1.4-.1.7v2.6h-.6Z"/>
  <path class="st1" d="M105,32.1c-.4,0-.8,0-1.1-.3-.3-.2-.6-.5-.8-.8-.2-.3-.3-.7-.3-1.2s0-.8.3-1.1c.2-.3.4-.6.7-.8.3-.2.7-.3,1.1-.3s.6,0,.8.2c.2.1.5.3.6.5.2.2.3.4.4.7,0,.2.1.5.1.7s0,.1,0,.2c0,0,0,.1,0,.2h-3.6v-.6h3.3l-.3.2c0-.3,0-.6-.1-.8-.1-.2-.3-.4-.5-.6-.2-.1-.5-.2-.7-.2s-.5,0-.7.2c-.2.1-.4.3-.5.6-.1.2-.2.5-.2.9,0,.3,0,.6.2.9.1.3.3.4.6.6.2.1.5.2.8.2s.6,0,.8-.2c.2-.1.4-.3.5-.6l.5.3c0,.2-.2.4-.4.5-.2.2-.4.3-.6.4-.2,0-.5.1-.8.1Z"/>
  <path class="st1" d="M109.7,32v-6h.6v6h-.6Z"/>
  <path class="st1" d="M111.9,32v-4.3h.6v.8h-.1c.1-.3.3-.5.5-.7.2-.2.5-.2.8-.2s.6,0,.8.2c.2.1.4.3.6.6.1.2.2.5.2.8v2.8h-.6v-2.6c0-.3,0-.5-.1-.7,0-.2-.2-.3-.4-.4-.2-.1-.4-.2-.6-.2s-.4,0-.6.2c-.2,0-.3.2-.4.4,0,.2-.1.4-.1.7v2.6h-.6Z"/>
  <path class="st1" d="M118.3,32c-.4,0-.7-.1-.9-.3-.2-.2-.3-.5-.3-1v-2.4h-.8v-.6h.2c.2,0,.3,0,.4-.2.1-.1.2-.3.2-.5v-.4h.6v1h.9v.6h-.9v2.4c0,.1,0,.3,0,.4,0,.1.1.2.2.3.1,0,.2,0,.4,0s0,0,.2,0c0,0,.1,0,.2,0v.5c0,0-.1,0-.2,0,0,0-.1,0-.2,0Z"/>
  <path class="st1" d="M121.7,32.1c-.4,0-.8,0-1.1-.3-.3-.2-.6-.5-.8-.8-.2-.3-.3-.7-.3-1.2s0-.8.3-1.1c.2-.3.4-.6.7-.8.3-.2.7-.3,1.1-.3s.6,0,.8.2c.2.1.5.3.6.5.2.2.3.4.4.7,0,.2.1.5.1.7s0,.1,0,.2c0,0,0,.1,0,.2h-3.6v-.6h3.3l-.3.2c0-.3,0-.6-.1-.8-.1-.2-.3-.4-.5-.6-.2-.1-.5-.2-.7-.2s-.5,0-.7.2c-.2.1-.4.3-.5.6-.1.2-.2.5-.2.9,0,.3,0,.6.2.9.1.3.3.4.6.6.2.1.5.2.8.2s.6,0,.8-.2.4-.3.5-.6l.5.3c0,.2-.2.4-.4.5-.2.2-.4.3-.6.4-.2,0-.5.1-.8.1Z"/>
  <path class="st1" d="M124.8,32v-4.3h.6v.7h0c.1-.3.3-.5.5-.6.2-.1.5-.2.8-.2h.3v.6h-.4c-.3,0-.6,0-.7.3-.2.2-.3.5-.3.8v2.6h-.6Z"/>
  <path class="st1" d="M127.7,32v-4.3h.6v.8h-.1c.1-.3.3-.5.5-.7.2-.2.5-.2.8-.2s.6,0,.8.2c.2.1.4.3.6.6.1.2.2.5.2.8v2.8h-.6v-2.6c0-.3,0-.5-.1-.7,0-.2-.2-.3-.4-.4-.2-.1-.4-.2-.6-.2s-.4,0-.6.2c-.2,0-.3.2-.4.4,0,.2-.1.4-.1.7v2.6h-.6Z"/>
  <path class="st1" d="M134.4,32.1c-.4,0-.8,0-1.1-.3-.3-.2-.6-.5-.8-.8-.2-.3-.3-.7-.3-1.2s0-.8.3-1.1c.2-.3.4-.6.7-.8.3-.2.7-.3,1.1-.3s.6,0,.8.2c.2.1.5.3.6.5.2.2.3.4.4.7,0,.2.1.5.1.7s0,.1,0,.2c0,0,0,.1,0,.2h-3.6v-.6h3.3l-.3.2c0-.3,0-.6-.1-.8-.1-.2-.3-.4-.5-.6-.2-.1-.5-.2-.7-.2s-.5,0-.7.2c-.2.1-.4.3-.5.6-.1.2-.2.5-.2.9,0,.3,0,.6.2.9.1.3.3.4.6.6.2.1.5.2.8.2s.6,0,.8-.2c.2-.1.4-.3.5-.6l.5.3c0,.2-.2.4-.4.5-.2.2-.4.3-.6.4-.2,0-.5.1-.8.1Z"/>
  <path class="st1" d="M139.1,32c-.4,0-.7-.1-.9-.3-.2-.2-.3-.5-.3-1v-2.4h-.8v-.6h.2c.2,0,.3,0,.4-.2.1-.1.2-.3.2-.5v-.4h.6v1h.9v.6h-.9v2.4c0,.1,0,.3,0,.4,0,.1.1.2.2.3.1,0,.2,0,.4,0s0,0,.2,0c0,0,.1,0,.2,0v.5c0,0-.1,0-.2,0,0,0-.1,0-.2,0Z"/>
  <path class="st1" d="M141.7,32l2.2-6h.7l2.2,6h-.7l-.5-1.5h-2.7l-.5,1.5h-.7ZM143.1,29.9h2.2l-1.2-3.4h.2l-1.2,3.4Z"/>
  <path class="st1" d="M147.7,32v-4.3h.6v.7h0c.1-.3.3-.5.5-.6.2-.1.5-.2.8-.2h.3v.6h-.4c-.3,0-.6,0-.7.3-.2.2-.3.5-.3.8v2.6h-.6Z"/>
  <path class="st1" d="M152.5,32.1c-.4,0-.8,0-1.1-.3-.3-.2-.6-.5-.8-.8-.2-.3-.3-.7-.3-1.2s0-.8.3-1.1c.2-.3.4-.6.8-.8.3-.2.7-.3,1.1-.3s.5,0,.8.1c.2,0,.4.2.6.4.2.2.3.3.4.6l-.5.3c-.1-.2-.3-.4-.5-.6-.2-.1-.5-.2-.8-.2s-.5,0-.8.2c-.2.1-.4.3-.5.6-.1.2-.2.5-.2.8s0,.6.2.8c.1.2.3.4.5.6.2.1.5.2.8.2s.5,0,.7-.2c.2-.1.4-.3.5-.6l.5.3c0,.2-.2.4-.4.6-.2.2-.4.3-.6.4-.2,0-.5.1-.8.1Z"/>
  <path class="st1" d="M155.5,32v-6.1h.6v2.6h-.1c.1-.3.3-.5.5-.7.2-.2.5-.2.8-.2s.6,0,.8.2c.2.1.4.3.6.6.1.2.2.5.2.8v2.8h-.6v-2.6c0-.3,0-.5-.1-.7,0-.2-.2-.3-.4-.4-.2-.1-.4-.2-.6-.2s-.4,0-.6.2c-.2,0-.3.2-.4.4,0,.2-.1.4-.1.7v2.6h-.6Z"/>
  <path class="st1" d="M160.2,32v-4.3h.6v4.3h-.6ZM160.2,26.9v-.9h.6v.9h-.6Z"/>
  <path class="st1" d="M163.3,32l-1.7-4.3h.7l1.4,3.8h-.2l1.4-3.8h.7l-1.7,4.3h-.6Z"/>
  <path class="st1" d="M168.4,32.1c-.4,0-.8,0-1.1-.3-.3-.2-.6-.5-.8-.8-.2-.3-.3-.7-.3-1.2s0-.8.3-1.1c.2-.3.4-.6.7-.8.3-.2.7-.3,1.1-.3s.6,0,.8.2c.2.1.5.3.6.5.2.2.3.4.4.7,0,.2.1.5.1.7s0,.1,0,.2c0,0,0,.1,0,.2h-3.6v-.6h3.3l-.3.2c0-.3,0-.6-.1-.8-.1-.2-.3-.4-.5-.6-.2-.1-.5-.2-.7-.2s-.5,0-.7.2c-.2.1-.4.3-.5.6-.1.2-.2.5-.2.9,0,.3,0,.6.2.9.1.3.3.4.6.6.2.1.5.2.8.2s.6,0,.8-.2c.2-.1.4-.3.5-.6l.5.3c0,.2-.2.4-.4.5-.2.2-.4.3-.6.4-.2,0-.5.1-.8.1Z"/>
</svg>